<svg version="1.1" xmlns="http://www.w3.org/2000/svg" xmlns:xlink="http://www.w3.org/1999/xlink" width="1478" height="463" viewBox="0 0 1478 463"><defs/><g transform="matrix(1,0,0,1,0,0)"><g><g><g><path fill="none" stroke="#d3d3d3" paint-order="fill stroke markers" d=" M 0 0 L 1200 0" stroke-miterlimit="10" stroke-opacity="0.8" stroke-dasharray="5"/></g><g><path fill="none" stroke="#d3d3d3" paint-order="fill stroke markers" d=" M 0 0 L 0 800" stroke-miterlimit="10" stroke-opacity="0.8" stroke-dasharray="5"/></g></g><g id="Event_0k5jadf" bpmn2nodeid="Event_0k5jadf" transform="matrix(1,0,0,1,1372,352)"><g><path fill="none" stroke="none"/></g><g transform="matrix(0.125,0,0,0.125,0,0)"><g transform="matrix(1,0,0,1,0,0)"><path fill="#fce7e7" stroke="black" id="Event_0k5jadf?shapeType=BACKGROUND" paint-order="fill stroke markers" d=" M 0 0 M 444 224 C 444 263.9 434.2 300.8 414.4 334.5 C 394.7 368.2 368 394.9 334.4 414.5 C 300.79999999999995 434.1 263.9 444 224 444 C 184.10000000000002 444 147.2 434.2 113.5 414.4 C 79.8 394.7 53.1 368 33.5 334.4 C 13.899999999999999 300.79999999999995 4 263.9 4 224 C 4 184.10000000000002 13.8 147.2 33.6 113.5 C 53.400000000000006 79.80000000000001 80.1 53.1 113.6 33.5 C 147.1 13.899999999999999 184.1 4 224 4 C 263.9 4 300.8 13.8 334.5 33.6 C 368.2 53.400000000000006 394.9 80.1 414.5 113.6 C 434.1 147.1 444 184.1 444 224 Z" stroke-miterlimit="10" stroke-dasharray=""/></g><g><g transform="matrix(1,0,0,1,0,0)"><g transform="matrix(1,0,0,1,0,0)"><path fill="#a30000" stroke="black" id="Event_0k5jadf?shapeType=BORDER&amp;renderType=FILL" paint-order="fill stroke markers" d=" M 0 0 M 224 0 C 100.3 0 0 100.3 0 224 C 0 347.7 100.3 448 224 448 C 347.7 448 448 347.7 448 224 C 448 100.30000000000001 347.7 0 224 0 Z M 0 0 M 224 400 C 126.8 400 48 321.2 48 224 C 48 126.80000000000001 126.8 48 224 48 C 321.2 48 400 126.8 400 224 C 400 321.2 321.2 400 224 400 Z" stroke-miterlimit="10" stroke-dasharray=""/></g></g></g><g><g transform="matrix(1,0,0,1,0,0)"><g transform="matrix(1,0,0,1,0,0)"><path fill="#a30000" stroke="black" id="Event_0k5jadf_message-throwing" paint-order="fill stroke markers" d=" M 0 0 M 336.2 189.4 L 336.2 288.7 C 336.2 294.2 334.3 298.9 330.3 302.8 C 326.40000000000003 306.7 321.7 308.7 316.2 308.7 L 132.2 308.7 C 126.69999999999999 308.7 121.99999999999999 306.7 118.1 302.8 C 114.19999999999999 298.90000000000003 112.19999999999999 294.2 112.19999999999999 288.7 L 112.19999999999999 189.39999999999998 C 115.89999999999999 193.49999999999997 120.1 197.09999999999997 124.79999999999998 200.29999999999998 C 154.99999999999997 220.79999999999998 175.7 235.2 186.89999999999998 243.39999999999998 C 191.7 246.89999999999998 195.49999999999997 249.59999999999997 198.49999999999997 251.59999999999997 C 201.39999999999998 253.49999999999997 205.39999999999998 255.49999999999997 210.29999999999998 257.59999999999997 C 215.2 259.7 219.79999999999998 260.7 224.1 260.7 L 224.29999999999998 260.7 C 228.49999999999997 260.7 233.1 259.7 238.1 257.59999999999997 C 243 255.49999999999997 247 253.49999999999997 249.9 251.59999999999997 C 252.8 249.69999999999996 256.7 246.89999999999998 261.5 243.39999999999998 C 275.6 233.2 296.4 218.79999999999998 323.7 200.29999999999998 C 328.5 197.1 332.6 193.4 336.2 189.4 Z M 0 0 M 336.2 152.7 C 336.2 159.29999999999998 334.2 165.6 330.09999999999997 171.6 C 326.09999999999997 177.6 320.99999999999994 182.7 314.9 187 C 283.5 208.8 264 222.3 256.4 227.6 C 255.59999999999997 228.2 253.79999999999998 229.4 251.09999999999997 231.4 C 248.39999999999995 233.4 246.19999999999996 235 244.29999999999995 236.20000000000002 C 242.39999999999995 237.40000000000003 240.39999999999995 238.8 237.79999999999995 240.3 C 235.19999999999996 241.8 232.89999999999995 242.9 230.59999999999997 243.70000000000002 C 228.29999999999998 244.50000000000003 226.19999999999996 244.8 224.39999999999998 244.8 L 224.2 244.8 C 222.29999999999998 244.8 220.2 244.4 218 243.70000000000002 C 215.8 243.00000000000003 213.3 241.8 210.8 240.3 C 208.20000000000002 238.8 206.10000000000002 237.4 204.3 236.20000000000002 C 202.5 235.00000000000003 200.20000000000002 233.4 197.5 231.4 C 194.79999999999998 229.4 193 228.20000000000002 192.2 227.6 C 184.6 222.29999999999998 173.7 214.7 159.39999999999998 204.79999999999998 C 145.09999999999997 194.89999999999998 136.59999999999997 188.99999999999997 133.79999999999998 186.99999999999997 C 128.6 183.49999999999997 123.69999999999999 178.69999999999996 119.19999999999999 172.59999999999997 C 114.69999999999999 166.49999999999997 112.29999999999998 160.79999999999995 112.29999999999998 155.49999999999997 C 112.29999999999998 148.99999999999997 114.09999999999998 143.59999999999997 117.49999999999999 139.29999999999998 C 120.89999999999999 134.99999999999997 125.89999999999999 132.79999999999998 132.29999999999998 132.79999999999998 L 316.29999999999995 132.79999999999998 C 321.69999999999993 132.79999999999998 326.4 134.7 330.4 138.7 C 334.2 142.6 336.2 147.2 336.2 152.7 Z" stroke-miterlimit="10" stroke-dasharray=""/></g></g></g></g><g transform="matrix(1,0,0,1,-55.40234375,61)"><text fill="#000000" stroke="none" font-family="Open Sans" font-size="12pt" font-style="normal" font-weight="normal" text-decoration="normal" x="83.40234375" y="12" text-anchor="middle" dominant-baseline="alphabetic">Сообщить об успешной </text><text fill="#000000" stroke="none" font-family="Open Sans" font-size="12pt" font-style="normal" font-weight="normal" text-decoration="normal" x="83.40234375" y="27" text-anchor="middle" dominant-baseline="alphabetic">          регистрации          </text></g></g><g transform="matrix(1,0,0,1,1372,352)"/><g id="Activity_0y6wi5p" bpmn2nodeid="Activity_0y6wi5p" transform="matrix(1,0,0,1,570,330)"><g><path fill="none" stroke="none"/></g><g transform="matrix(1,0,0,1,0,0)"><path fill="#ffffff" stroke="none" id="Activity_0y6wi5p?shapeType=BACKGROUND" paint-order="stroke fill markers" d=" M 2 0 L 98 0 L 98 0 A 2 2 0 0 1 100 2 L 100 78 L 100 78 A 2 2 0 0 1 98 80 L 2 80 L 2 80 A 2 2 0 0 1 0 78 L 0 2 L 0 2.0000000000000004 A 2 2 0 0 1 1.9999999999999996 0 Z"/></g><g transform="matrix(1,0,0,1,0,0)"><path fill="none" stroke="#000000" id="Activity_0y6wi5p?shapeType=BORDER&amp;renderType=STROKE" paint-order="fill stroke markers" d=" M 2 0 L 98 0 L 98 0 A 2 2 0 0 1 100 2 L 100 78 L 100 78 A 2 2 0 0 1 98 80 L 2 80 L 2 80 A 2 2 0 0 1 0 78 L 0 2 L 0 2.0000000000000004 A 2 2 0 0 1 1.9999999999999996 0 Z" stroke-miterlimit="10" stroke-width="1.5" stroke-dasharray=""/></g><g transform="matrix(1,0,0,1,5.8828125,17.5)"><text fill="#000000" stroke="none" font-family="Open Sans" font-size="12pt" font-style="normal" font-weight="normal" text-decoration="normal" x="44.1171875" y="12" text-anchor="middle" dominant-baseline="alphabetic">Предложить </text><text fill="#000000" stroke="none" font-family="Open Sans" font-size="12pt" font-style="normal" font-weight="normal" text-decoration="normal" x="44.1171875" y="27" text-anchor="middle" dominant-baseline="alphabetic">    войти в     </text><text fill="#000000" stroke="none" font-family="Open Sans" font-size="12pt" font-style="normal" font-weight="normal" text-decoration="normal" x="44.1171875" y="42" text-anchor="middle" dominant-baseline="alphabetic">     истему     </text></g></g><g transform="matrix(1,0,0,1,570,330)"/><g id="Activity_1awq5c9" bpmn2nodeid="Activity_1awq5c9" transform="matrix(1,0,0,1,440,230)"><g><path fill="none" stroke="none"/></g><g transform="matrix(1,0,0,1,0,0)"><path fill="#ffffff" stroke="none" id="Activity_1awq5c9?shapeType=BACKGROUND" paint-order="stroke fill markers" d=" M 2 0 L 98 0 L 98 0 A 2 2 0 0 1 100 2 L 100 78 L 100 78 A 2 2 0 0 1 98 80 L 2 80 L 2 80 A 2 2 0 0 1 0 78 L 0 2 L 0 2.0000000000000004 A 2 2 0 0 1 1.9999999999999996 0 Z"/></g><g transform="matrix(1,0,0,1,0,0)"><path fill="none" stroke="#000000" id="Activity_1awq5c9?shapeType=BORDER&amp;renderType=STROKE" paint-order="fill stroke markers" d=" M 2 0 L 98 0 L 98 0 A 2 2 0 0 1 100 2 L 100 78 L 100 78 A 2 2 0 0 1 98 80 L 2 80 L 2 80 A 2 2 0 0 1 0 78 L 0 2 L 0 2.0000000000000004 A 2 2 0 0 1 1.9999999999999996 0 Z" stroke-miterlimit="10" stroke-width="1.5" stroke-dasharray=""/></g><g transform="matrix(1,0,0,1,2.33984375,10)"><text fill="#000000" stroke="none" font-family="Open Sans" font-size="12pt" font-style="normal" font-weight="normal" text-decoration="normal" x="47.66015625" y="12" text-anchor="middle" dominant-baseline="alphabetic">   Показать     </text><text fill="#000000" stroke="none" font-family="Open Sans" font-size="12pt" font-style="normal" font-weight="normal" text-decoration="normal" x="47.66015625" y="27" text-anchor="middle" dominant-baseline="alphabetic">интерфейс в с</text><text fill="#000000" stroke="none" font-family="Open Sans" font-size="12pt" font-style="normal" font-weight="normal" text-decoration="normal" x="47.66015625" y="42" text-anchor="middle" dominant-baseline="alphabetic">оответсвии с  </text><text fill="#000000" stroke="none" font-family="Open Sans" font-size="12pt" font-style="normal" font-weight="normal" text-decoration="normal" x="47.66015625" y="57" text-anchor="middle" dominant-baseline="alphabetic">      уров...      </text></g></g><g transform="matrix(1,0,0,1,440,230)"/><g id="Activity_1s13gk8" bpmn2nodeid="Activity_1s13gk8" transform="matrix(1,0,0,1,310,330)"><g><path fill="none" stroke="none"/></g><g transform="matrix(1,0,0,1,0,0)"><path fill="#ffffff" stroke="none" id="Activity_1s13gk8?shapeType=BACKGROUND" paint-order="stroke fill markers" d=" M 2 0 L 98 0 L 98 0 A 2 2 0 0 1 100 2 L 100 78 L 100 78 A 2 2 0 0 1 98 80 L 2 80 L 2 80 A 2 2 0 0 1 0 78 L 0 2 L 0 2.0000000000000004 A 2 2 0 0 1 1.9999999999999996 0 Z"/></g><g transform="matrix(1,0,0,1,0,0)"><path fill="none" stroke="#000000" id="Activity_1s13gk8?shapeType=BORDER&amp;renderType=STROKE" paint-order="fill stroke markers" d=" M 2 0 L 98 0 L 98 0 A 2 2 0 0 1 100 2 L 100 78 L 100 78 A 2 2 0 0 1 98 80 L 2 80 L 2 80 A 2 2 0 0 1 0 78 L 0 2 L 0 2.0000000000000004 A 2 2 0 0 1 1.9999999999999996 0 Z" stroke-miterlimit="10" stroke-width="1.5" stroke-dasharray=""/></g><g transform="matrix(1,0,0,1,11.1875,17.5)"><text fill="#000000" stroke="none" font-family="Open Sans" font-size="12pt" font-style="normal" font-weight="normal" text-decoration="normal" x="38.8125" y="12" text-anchor="middle" dominant-baseline="alphabetic"> Показать   </text><text fill="#000000" stroke="none" font-family="Open Sans" font-size="12pt" font-style="normal" font-weight="normal" text-decoration="normal" x="38.8125" y="27" text-anchor="middle" dominant-baseline="alphabetic">начальный </text><text fill="#000000" stroke="none" font-family="Open Sans" font-size="12pt" font-style="normal" font-weight="normal" text-decoration="normal" x="38.8125" y="42" text-anchor="middle" dominant-baseline="alphabetic">    экран     </text></g></g><g transform="matrix(1,0,0,1,310,330)"/><g id="Activity_1h24ydu" bpmn2nodeid="Activity_1h24ydu" transform="matrix(1,0,0,1,1163,333)"><g><path fill="none" stroke="none"/></g><g transform="matrix(1,0,0,1,0,0)"><path fill="#ffffff" stroke="none" id="Activity_1h24ydu?shapeType=BACKGROUND" paint-order="stroke fill markers" d=" M 2 0 L 98 0 L 98 0 A 2 2 0 0 1 100 2 L 100 78 L 100 78 A 2 2 0 0 1 98 80 L 2 80 L 2 80 A 2 2 0 0 1 0 78 L 0 2 L 0 2.0000000000000004 A 2 2 0 0 1 1.9999999999999996 0 Z"/></g><g transform="matrix(1,0,0,1,0,0)"><path fill="none" stroke="rgb(0,0,0)" id="Activity_1h24ydu?shapeType=BORDER&amp;renderType=STROKE" paint-order="fill stroke markers" d=" M 2 0 L 98 0 L 98 0 A 2 2 0 0 1 100 2 L 100 78 L 100 78 A 2 2 0 0 1 98 80 L 2 80 L 2 80 A 2 2 0 0 1 0 78 L 0 2 L 0 2.0000000000000004 A 2 2 0 0 1 1.9999999999999996 0 Z" stroke-miterlimit="10" stroke-width="1.5" stroke-dasharray=""/></g><g transform="matrix(1,0,0,1,3.90234375,17.5)"><text fill="#000000" stroke="none" font-family="Open Sans" font-size="12pt" font-style="normal" font-weight="normal" text-decoration="normal" x="46.09765625" y="12" text-anchor="middle" dominant-baseline="alphabetic">Зарегистриро</text><text fill="#000000" stroke="none" font-family="Open Sans" font-size="12pt" font-style="normal" font-weight="normal" text-decoration="normal" x="46.09765625" y="27" text-anchor="middle" dominant-baseline="alphabetic">       вать        </text><text fill="#000000" stroke="none" font-family="Open Sans" font-size="12pt" font-style="normal" font-weight="normal" text-decoration="normal" x="46.09765625" y="42" text-anchor="middle" dominant-baseline="alphabetic">пользователя </text></g></g><g id="Flow_0g0fkos" bpmn2nodeid="Flow_0g0fkos"><g><path fill="none" stroke="rgb(0,0,0)" paint-order="fill stroke markers" d=" M 1263 373 L 1357.0308363901472 379.03867756633974" stroke-miterlimit="10" stroke-dasharray=""/></g><g transform="matrix(1,0,0,1,1263,373)"/><g transform="matrix(-0.06408816224401717,0.9979442406568538,-0.9979442406568538,-0.06408816224401717,1372.3204408112201,375.01027879671574)"><path fill="rgb(0,0,0)" stroke="rgb(0,0,0)" paint-order="fill stroke markers" d=" M 10 15 L 0 15 L 5 0 Z" stroke-miterlimit="10" stroke-dasharray=""/></g><g transform="matrix(1,0,0,1,1263.6408816224402,366.5205575934315)"/></g><g transform="matrix(1,0,0,1,1163,333)"/><g id="Gateway_0ip0tnk" bpmn2nodeid="Gateway_0ip0tnk" transform="matrix(1,0,0,1,462,342)"><g><path fill="none" stroke="none"/></g><g transform="matrix(0.125,0,0,0.125,0,0)"><g transform="matrix(1,0,0,1,0,0)"><path fill="#fef4ea" stroke="black" id="Gateway_0ip0tnk?shapeType=BACKGROUND" paint-order="fill stroke markers" d=" M 0 0 M 224.4 4.3 C 216.4 4.3 208.4 7.3 202.3 13.399999999999999 L 13.5 202.2 C 1.3000000000000007 214.39999999999998 1.3000000000000007 234.2 13.5 246.39999999999998 L 202.2 435.09999999999997 C 208.29999999999998 441.2 216.39999999999998 444.2 224.29999999999998 444.2 C 232.2 444.2 240.29999999999998 441.2 246.39999999999998 435.09999999999997 L 435.09999999999997 246.39999999999998 C 447.29999999999995 234.2 447.29999999999995 214.39999999999998 435.09999999999997 202.2 L 246.5 13.4 C 240.4 7.3 232.4 4.3 224.4 4.3 L 224.4 4.3 Z" stroke-miterlimit="10" stroke-dasharray=""/></g><g><g transform="matrix(1,0,0,1,0,0)"><g transform="matrix(1,0,0,1,0,0)"><path fill="rgb(236,122,8)" stroke="black" id="Gateway_0ip0tnk?shapeType=BORDER&amp;renderType=FILL" paint-order="fill stroke markers" d=" M 0 0 M 20.8 212.7 L 213.3 20.2 C 219.60000000000002 13.899999999999999 229.70000000000002 13.899999999999999 235.9 20.2 L 428.4 212.7 C 434.7 219 434.7 229.1 428.4 235.29999999999998 L 235.9 427.8 C 229.6 434.1 219.5 434.1 213.3 427.8 L 20.8 235.3 C 14.5 229.1 14.5 218.9 20.8 212.7 L 20.8 212.7 Z M 0 0 M 0 224 C 0 232.1 3.1 240.3 9.3 246.5 L 201.5 438.7 C 213.9 451.09999999999997 234.1 451.09999999999997 246.5 438.7 L 438.7 246.5 C 444.9 240.3 448 232.1 448 224 C 448 215.9 444.9 207.7 438.7 201.5 L 246.5 9.3 C 234.1 -3.0999999999999996 213.9 -3.0999999999999996 201.5 9.3 L 9.3 201.5 C 3.1 207.7 0 215.9 0 224 L 0 224 Z" stroke-miterlimit="10" stroke-dasharray=""/></g></g></g><g><g transform="matrix(1,0,0,1,0,0)"><g transform="matrix(1,0,0,1,0,0)"><path fill="#ec7a08" stroke="black" id="Gateway_0ip0tnk_exclusive" paint-order="fill stroke markers" d=" M 0 0 M 298.2 269.2 C 298.2 272.59999999999997 297.09999999999997 275.3 294.7 277.7 L 277.7 294.7 C 275.3 297.09999999999997 272.59999999999997 298.2 269.2 298.2 C 265.8 298.2 263.09999999999997 297.09999999999997 260.7 294.7 L 224 258 L 187.2 294.8 C 184.79999999999998 297.2 182.1 298.3 178.7 298.3 C 175.29999999999998 298.3 172.6 297.2 170.2 294.8 L 153.2 277.8 C 150.79999999999998 275.40000000000003 149.7 272.7 149.7 269.3 C 149.7 265.90000000000003 150.79999999999998 263.2 153.2 260.8 L 190 224 L 153.2 187.2 C 150.79999999999998 184.79999999999998 149.7 182 149.7 178.7 C 149.7 175.29999999999998 150.79999999999998 172.5 153.2 170.2 L 170.2 153.2 C 172.6 150.79999999999998 175.29999999999998 149.7 178.7 149.7 C 182.1 149.7 184.79999999999998 150.79999999999998 187.2 153.2 L 224 190 L 260.8 153.2 C 263.2 150.79999999999998 265.90000000000003 149.7 269.3 149.7 C 272.7 149.7 275.40000000000003 150.79999999999998 277.8 153.2 L 294.8 170.2 C 297.2 172.5 298.3 175.29999999999998 298.3 178.7 C 298.3 182 297.2 184.79999999999998 294.8 187.2 L 258 224 L 294.8 260.8 C 297.1 263.1 298.2 265.9 298.2 269.2 Z" stroke-miterlimit="10" stroke-dasharray=""/></g></g></g></g><g transform="matrix(1,0,0,1,-67.13671875,61)"><text fill="#000000" stroke="none" font-family="Open Sans" font-size="12pt" font-style="normal" font-weight="normal" text-decoration="normal" x="95.13671875" y="12" text-anchor="middle" dominant-baseline="alphabetic">Пользователь авторизован ?</text></g></g><g id="Flow_14chxio" bpmn2nodeid="Flow_14chxio"><g><path fill="none" stroke="#000000" paint-order="fill stroke markers" d=" M 410 370 L 447 370" stroke-miterlimit="10" stroke-dasharray=""/></g><g transform="matrix(1,0,0,1,410,370)"/><g transform="matrix(6.123233995736766e-17,1,-1,6.123233995736766e-17,462,365)"><path fill="#000000" stroke="#000000" paint-order="fill stroke markers" d=" M 10 15 L 0 15 L 5 0 Z" stroke-miterlimit="10" stroke-dasharray=""/></g><g transform="matrix(1,0,0,1,410,360)"/></g><g id="Flow_0zsqlwp" bpmn2nodeid="Flow_0zsqlwp"><g><path fill="none" stroke="#000000" paint-order="fill stroke markers" d=" M 518 370 L 555 370" stroke-miterlimit="10" stroke-dasharray=""/></g><g transform="matrix(1,0,0,1,518,370)"/><g transform="matrix(6.123233995736766e-17,1,-1,6.123233995736766e-17,570,365)"><path fill="#000000" stroke="#000000" paint-order="fill stroke markers" d=" M 10 15 L 0 15 L 5 0 Z" stroke-miterlimit="10" stroke-dasharray=""/></g><g transform="matrix(1,0,0,1,518,349)"><text fill="#000000" stroke="none" font-family="Open Sans" font-size="10pt" font-style="normal" font-weight="normal" text-decoration="normal" x="0" y="8.8" text-anchor="start" dominant-baseline="alphabetic">Нет         </text></g></g><g id="Flow_07uyoxu" bpmn2nodeid="Flow_07uyoxu"><g><path fill="none" stroke="#000000" paint-order="fill stroke markers" d=" M 490 342 L 490 325" stroke-miterlimit="10" stroke-dasharray=""/></g><g transform="matrix(1,0,0,1,490,342)"/><g transform="matrix(1,0,0,1,485,310)"><path fill="#000000" stroke="#000000" paint-order="fill stroke markers" d=" M 10 15 L 0 15 L 5 0 Z" stroke-miterlimit="10" stroke-dasharray=""/></g><g transform="matrix(1,0,0,1,500,315)"><text fill="#000000" stroke="none" font-family="Open Sans" font-size="10pt" font-style="normal" font-weight="normal" text-decoration="normal" x="0" y="8.8" text-anchor="start" dominant-baseline="alphabetic">Да     </text></g></g><g transform="matrix(1,0,0,1,462,342)"/><g id="Event_0ugkjwp" bpmn2nodeid="Event_0ugkjwp" transform="matrix(1,0,0,1,202,342)"><g><path fill="none" stroke="none"/></g><g transform="matrix(0.125,0,0,0.125,0,0)"><g transform="matrix(1,0,0,1,0,0)"><path fill="#e8fae6" stroke="black" id="Event_0ugkjwp?shapeType=BACKGROUND" paint-order="fill stroke markers" d=" M 0 0 M 444 224 C 444 263.9 434.2 300.8 414.4 334.5 C 394.7 368.2 368 394.9 334.4 414.5 C 300.79999999999995 434.1 263.9 444 224 444 C 184.10000000000002 444 147.2 434.2 113.5 414.4 C 79.8 394.7 53.1 368 33.5 334.4 C 13.899999999999999 300.79999999999995 4 263.9 4 224 C 4 184.10000000000002 13.8 147.2 33.6 113.5 C 53.400000000000006 79.80000000000001 80.1 53.1 113.6 33.5 C 147.1 13.899999999999999 184.1 4 224 4 C 263.9 4 300.8 13.8 334.5 33.6 C 368.2 53.400000000000006 394.9 80.1 414.5 113.6 C 434.1 147.1 444 184.1 444 224 Z" stroke-miterlimit="10" stroke-dasharray=""/></g><g><g transform="matrix(1,0,0,1,0,0)"><g transform="matrix(1,0,0,1,0,0)"><path fill="rgb(74,162,65)" stroke="black" id="Event_0ugkjwp?shapeType=BORDER&amp;renderType=FILL" paint-order="fill stroke markers" d=" M 0 0 M 224 0 C 100.3 0 0 100.3 0 224 C 0 347.7 100.3 448 224 448 C 347.7 448 448 347.7 448 224 C 448 100.30000000000001 347.7 0 224 0 Z M 0 0 M 224 432 C 109.1 432 16 338.9 16 224 C 16 109.10000000000002 109.1 16 224 16 C 338.9 16 432 109.1 432 224 C 432 338.9 338.9 432 224 432 Z" stroke-miterlimit="10" stroke-dasharray=""/></g></g></g></g><g transform="matrix(1,0,0,1,28,61)"/></g><g id="Flow_0zrddfh" bpmn2nodeid="Flow_0zrddfh"><g><path fill="none" stroke="#000000" paint-order="fill stroke markers" d=" M 258 370 L 295 370" stroke-miterlimit="10" stroke-dasharray=""/></g><g transform="matrix(1,0,0,1,258,370)"/><g transform="matrix(6.123233995736766e-17,1,-1,6.123233995736766e-17,310,365)"><path fill="#000000" stroke="#000000" paint-order="fill stroke markers" d=" M 10 15 L 0 15 L 5 0 Z" stroke-miterlimit="10" stroke-dasharray=""/></g><g transform="matrix(1,0,0,1,258,360)"/></g><g transform="matrix(1,0,0,1,202,342)"/><g id="Activity_1i86ek1" bpmn2nodeid="Activity_1i86ek1" transform="matrix(1,0,0,1,722,330)"><g><path fill="none" stroke="none"/></g><g transform="matrix(1,0,0,1,0,0)"><path fill="#ffffff" stroke="none" id="Activity_1i86ek1?shapeType=BACKGROUND" paint-order="stroke fill markers" d=" M 2 0 L 98 0 L 98 0 A 2 2 0 0 1 100 2 L 100 78 L 100 78 A 2 2 0 0 1 98 80 L 2 80 L 2 80 A 2 2 0 0 1 0 78 L 0 2 L 0 2.0000000000000004 A 2 2 0 0 1 1.9999999999999996 0 Z"/></g><g transform="matrix(1,0,0,1,0,0)"><path fill="none" stroke="rgb(0,0,0)" id="Activity_1i86ek1?shapeType=BORDER&amp;renderType=STROKE" paint-order="fill stroke markers" d=" M 2 0 L 98 0 L 98 0 A 2 2 0 0 1 100 2 L 100 78 L 100 78 A 2 2 0 0 1 98 80 L 2 80 L 2 80 A 2 2 0 0 1 0 78 L 0 2 L 0 2.0000000000000004 A 2 2 0 0 1 1.9999999999999996 0 Z" stroke-miterlimit="10" stroke-width="1.5" stroke-dasharray=""/></g><g transform="matrix(1,0,0,1,15.12890625,17.5)"><text fill="#000000" stroke="none" font-family="Open Sans" font-size="12pt" font-style="normal" font-weight="normal" text-decoration="normal" x="34.87109375" y="12" text-anchor="middle" dominant-baseline="alphabetic">Спросить </text><text fill="#000000" stroke="none" font-family="Open Sans" font-size="12pt" font-style="normal" font-weight="normal" text-decoration="normal" x="34.87109375" y="27" text-anchor="middle" dominant-baseline="alphabetic">  данные   </text><text fill="#000000" stroke="none" font-family="Open Sans" font-size="12pt" font-style="normal" font-weight="normal" text-decoration="normal" x="34.87109375" y="42" text-anchor="middle" dominant-baseline="alphabetic">  акаунта  </text></g></g><g id="Flow_04ikue1" bpmn2nodeid="Flow_04ikue1"><g><path fill="none" stroke="rgb(0,0,0)" paint-order="fill stroke markers" d=" M 670 370 L 707 370" stroke-miterlimit="10" stroke-dasharray=""/></g><g transform="matrix(1,0,0,1,670,370)"/><g transform="matrix(6.123233995736766e-17,1,-1,6.123233995736766e-17,722,365)"><path fill="rgb(0,0,0)" stroke="rgb(0,0,0)" paint-order="fill stroke markers" d=" M 10 15 L 0 15 L 5 0 Z" stroke-miterlimit="10" stroke-dasharray=""/></g><g transform="matrix(1,0,0,1,670,360)"/></g><g transform="matrix(1,0,0,1,722,330)"/><g id="Activity_1lcf10o" bpmn2nodeid="Activity_1lcf10o" transform="matrix(1,0,0,1,874,330)"><g><path fill="none" stroke="none"/></g><g transform="matrix(1,0,0,1,0,0)"><path fill="#ffffff" stroke="none" id="Activity_1lcf10o?shapeType=BACKGROUND" paint-order="stroke fill markers" d=" M 2 0 L 98 0 L 98 0 A 2 2 0 0 1 100 2 L 100 78 L 100 78 A 2 2 0 0 1 98 80 L 2 80 L 2 80 A 2 2 0 0 1 0 78 L 0 2 L 0 2.0000000000000004 A 2 2 0 0 1 1.9999999999999996 0 Z"/></g><g transform="matrix(1,0,0,1,0,0)"><path fill="none" stroke="rgb(0,0,0)" id="Activity_1lcf10o?shapeType=BORDER&amp;renderType=STROKE" paint-order="fill stroke markers" d=" M 2 0 L 98 0 L 98 0 A 2 2 0 0 1 100 2 L 100 78 L 100 78 A 2 2 0 0 1 98 80 L 2 80 L 2 80 A 2 2 0 0 1 0 78 L 0 2 L 0 2.0000000000000004 A 2 2 0 0 1 1.9999999999999996 0 Z" stroke-miterlimit="10" stroke-width="1.5" stroke-dasharray=""/></g><g transform="matrix(1,0,0,1,-0.375,17.5)"><text fill="#000000" stroke="none" font-family="Open Sans" font-size="12pt" font-style="normal" font-weight="normal" text-decoration="normal" x="50.375" y="12" text-anchor="middle" dominant-baseline="alphabetic"> Проверить су </text><text fill="#000000" stroke="none" font-family="Open Sans" font-size="12pt" font-style="normal" font-weight="normal" text-decoration="normal" x="50.375" y="27" text-anchor="middle" dominant-baseline="alphabetic">ществование п</text><text fill="#000000" stroke="none" font-family="Open Sans" font-size="12pt" font-style="normal" font-weight="normal" text-decoration="normal" x="50.375" y="42" text-anchor="middle" dominant-baseline="alphabetic">  ользователя   </text></g></g><g id="Flow_033wdy0" bpmn2nodeid="Flow_033wdy0"><g><path fill="none" stroke="rgb(0,0,0)" paint-order="fill stroke markers" d=" M 822 370 L 859 370" stroke-miterlimit="10" stroke-dasharray=""/></g><g transform="matrix(1,0,0,1,822,370)"/><g transform="matrix(6.123233995736766e-17,1,-1,6.123233995736766e-17,874,365)"><path fill="rgb(0,0,0)" stroke="rgb(0,0,0)" paint-order="fill stroke markers" d=" M 10 15 L 0 15 L 5 0 Z" stroke-miterlimit="10" stroke-dasharray=""/></g><g transform="matrix(1,0,0,1,822,360)"/></g><g transform="matrix(1,0,0,1,874,330)"/><g id="Gateway_1g52b7h" bpmn2nodeid="Gateway_1g52b7h" transform="matrix(1,0,0,1,1041,342)"><g><path fill="none" stroke="none"/></g><g transform="matrix(0.125,0,0,0.125,0,0)"><g transform="matrix(1,0,0,1,0,0)"><path fill="#fef4ea" stroke="black" id="Gateway_1g52b7h?shapeType=BACKGROUND" paint-order="fill stroke markers" d=" M 0 0 M 224.4 4.3 C 216.4 4.3 208.4 7.3 202.3 13.399999999999999 L 13.5 202.2 C 1.3000000000000007 214.39999999999998 1.3000000000000007 234.2 13.5 246.39999999999998 L 202.2 435.09999999999997 C 208.29999999999998 441.2 216.39999999999998 444.2 224.29999999999998 444.2 C 232.2 444.2 240.29999999999998 441.2 246.39999999999998 435.09999999999997 L 435.09999999999997 246.39999999999998 C 447.29999999999995 234.2 447.29999999999995 214.39999999999998 435.09999999999997 202.2 L 246.5 13.4 C 240.4 7.3 232.4 4.3 224.4 4.3 L 224.4 4.3 Z" stroke-miterlimit="10" stroke-dasharray=""/></g><g><g transform="matrix(1,0,0,1,0,0)"><g transform="matrix(1,0,0,1,0,0)"><path fill="rgb(236,122,8)" stroke="black" id="Gateway_1g52b7h?shapeType=BORDER&amp;renderType=FILL" paint-order="fill stroke markers" d=" M 0 0 M 20.8 212.7 L 213.3 20.2 C 219.60000000000002 13.899999999999999 229.70000000000002 13.899999999999999 235.9 20.2 L 428.4 212.7 C 434.7 219 434.7 229.1 428.4 235.29999999999998 L 235.9 427.8 C 229.6 434.1 219.5 434.1 213.3 427.8 L 20.8 235.3 C 14.5 229.1 14.5 218.9 20.8 212.7 L 20.8 212.7 Z M 0 0 M 0 224 C 0 232.1 3.1 240.3 9.3 246.5 L 201.5 438.7 C 213.9 451.09999999999997 234.1 451.09999999999997 246.5 438.7 L 438.7 246.5 C 444.9 240.3 448 232.1 448 224 C 448 215.9 444.9 207.7 438.7 201.5 L 246.5 9.3 C 234.1 -3.0999999999999996 213.9 -3.0999999999999996 201.5 9.3 L 9.3 201.5 C 3.1 207.7 0 215.9 0 224 L 0 224 Z" stroke-miterlimit="10" stroke-dasharray=""/></g></g></g><g><g transform="matrix(1,0,0,1,0,0)"><g transform="matrix(1,0,0,1,0,0)"><path fill="#ec7a08" stroke="black" id="Gateway_1g52b7h_exclusive" paint-order="fill stroke markers" d=" M 0 0 M 298.2 269.2 C 298.2 272.59999999999997 297.09999999999997 275.3 294.7 277.7 L 277.7 294.7 C 275.3 297.09999999999997 272.59999999999997 298.2 269.2 298.2 C 265.8 298.2 263.09999999999997 297.09999999999997 260.7 294.7 L 224 258 L 187.2 294.8 C 184.79999999999998 297.2 182.1 298.3 178.7 298.3 C 175.29999999999998 298.3 172.6 297.2 170.2 294.8 L 153.2 277.8 C 150.79999999999998 275.40000000000003 149.7 272.7 149.7 269.3 C 149.7 265.90000000000003 150.79999999999998 263.2 153.2 260.8 L 190 224 L 153.2 187.2 C 150.79999999999998 184.79999999999998 149.7 182 149.7 178.7 C 149.7 175.29999999999998 150.79999999999998 172.5 153.2 170.2 L 170.2 153.2 C 172.6 150.79999999999998 175.29999999999998 149.7 178.7 149.7 C 182.1 149.7 184.79999999999998 150.79999999999998 187.2 153.2 L 224 190 L 260.8 153.2 C 263.2 150.79999999999998 265.90000000000003 149.7 269.3 149.7 C 272.7 149.7 275.40000000000003 150.79999999999998 277.8 153.2 L 294.8 170.2 C 297.2 172.5 298.3 175.29999999999998 298.3 178.7 C 298.3 182 297.2 184.79999999999998 294.8 187.2 L 258 224 L 294.8 260.8 C 297.1 263.1 298.2 265.9 298.2 269.2 Z" stroke-miterlimit="10" stroke-dasharray=""/></g></g></g></g><g transform="matrix(1,0,0,1,-64.56640625,61)"><text fill="#000000" stroke="none" font-family="Open Sans" font-size="12pt" font-style="normal" font-weight="normal" text-decoration="normal" x="92.56640625" y="12" text-anchor="middle" dominant-baseline="alphabetic">Пользователь существует ?</text></g></g><g id="Flow_03r2ucs" bpmn2nodeid="Flow_03r2ucs"><g><path fill="none" stroke="rgb(0,0,0)" paint-order="fill stroke markers" d=" M 974 370 L 1026 370" stroke-miterlimit="10" stroke-dasharray=""/></g><g transform="matrix(1,0,0,1,974,370)"/><g transform="matrix(6.123233995736766e-17,1,-1,6.123233995736766e-17,1041,365)"><path fill="rgb(0,0,0)" stroke="rgb(0,0,0)" paint-order="fill stroke markers" d=" M 10 15 L 0 15 L 5 0 Z" stroke-miterlimit="10" stroke-dasharray=""/></g><g transform="matrix(1,0,0,1,974,360)"/></g><g id="Flow_11wtftk" bpmn2nodeid="Flow_11wtftk"><g><path fill="none" stroke="rgb(0,0,0)" paint-order="fill stroke markers" d=" M 1069 342 L 1069 202 L 490 202 L 490 215" stroke-miterlimit="10" stroke-dasharray=""/></g><g transform="matrix(1,0,0,1,1069,342)"/><g transform="matrix(-1,1.2246467991473532e-16,-1.2246467991473532e-16,-1,495,230)"><path fill="rgb(0,0,0)" stroke="rgb(0,0,0)" paint-order="fill stroke markers" d=" M 10 15 L 0 15 L 5 0 Z" stroke-miterlimit="10" stroke-dasharray=""/></g><g transform="matrix(1,0,0,1,1079,261)"><text fill="#000000" stroke="none" font-family="Open Sans" font-size="10pt" font-style="normal" font-weight="normal" text-decoration="normal" x="0" y="8.8" text-anchor="start" dominant-baseline="alphabetic">Да                                    </text></g></g><g transform="matrix(1,0,0,1,1041,342)"/><g id="_922A1BD8-7D20-4840-8476-FEF1FA3CD7FC" bpmn2nodeid="_922A1BD8-7D20-4840-8476-FEF1FA3CD7FC"><g><path fill="none" stroke="rgb(0,0,0)" paint-order="fill stroke markers" d=" M 1069 398 L 1069 517 L 490 517 L 490 413" stroke-miterlimit="10" stroke-dasharray=""/></g><g transform="matrix(1,0,0,1,1069,398)"/><g transform="matrix(1,0,0,1,485,398)"><path fill="rgb(0,0,0)" stroke="rgb(0,0,0)" paint-order="fill stroke markers" d=" M 10 15 L 0 15 L 5 0 Z" stroke-miterlimit="10" stroke-dasharray=""/></g><g transform="matrix(1,0,0,1,1079,457.5)"/></g></g></g></svg>